<svg width="127" height="159" viewBox="0 0 127 159" fill="none" xmlns="http://www.w3.org/2000/svg">
<g clip-path="url(#clip0_110_617)">
<g clip-path="url(#clip1_110_617)">
<circle cx="62" cy="117" r="84.5" stroke="#5200FF"/>
<circle cx="63" cy="129" r="84.5" stroke="#5200FF"/>
<circle cx="63" cy="140" r="84.5" stroke="#5200FF"/>
<circle cx="63" cy="150" r="84.5" stroke="#5200FF"/>
<circle cx="143" cy="78" r="84.5" stroke="#5200FF"/>
<circle cx="144" cy="90" r="84.5" stroke="#5200FF"/>
<circle cx="144" cy="101" r="84.5" stroke="#5200FF"/>
<circle cx="144" cy="111" r="84.5" stroke="#5200FF"/>
<circle cx="2" cy="148" r="84.5" stroke="#5200FF"/>
<circle cx="3" cy="160" r="84.5" stroke="#5200FF"/>
<circle cx="3" cy="171" r="84.5" stroke="#5200FF"/>
<circle cx="3" cy="181" r="84.5" stroke="#5200FF"/>
<circle cx="-45" cy="-51" r="84.5" stroke="#5200FF"/>
<circle cx="-44" cy="-39" r="84.5" stroke="#5200FF"/>
<circle cx="-44" cy="-28" r="84.5" stroke="#5200FF"/>
<circle cx="-44" cy="-18" r="84.5" stroke="#5200FF"/>
<path d="M87.3971 34.7466L110.055 50.8572L86.8503 62.5426L87.3971 34.7466Z" fill="#4200FF" fill-opacity="0.8"/>
<path d="M89.3626 38.6494L112.02 54.76L88.8157 66.4454L89.3626 38.6494Z" fill="#4200FF" fill-opacity="0.8"/>
<path d="M41.3971 22.7466L64.0548 38.8572L40.8503 50.5426L41.3971 22.7466Z" fill="#5200FF" fill-opacity="0.8"/>
<path d="M43.3626 26.6494L66.0202 42.76L42.8157 54.4454L43.3626 26.6494Z" fill="#5200FF" fill-opacity="0.8"/>
<path d="M26.7406 68.7466L49.3983 84.8571L26.1938 96.5426L26.7406 68.7466Z" fill="#4200FF" fill-opacity="0.8"/>
<path d="M28.2754 72.6494L50.9331 88.7599L27.7285 100.445L28.2754 72.6494Z" fill="#4200FF" fill-opacity="0.8"/>
</g>
<path d="M4.33115 152V140.1H10.6212C10.9158 140.1 11.1878 140.213 11.4372 140.44L13.0692 141.8C13.3412 142.027 13.4772 142.253 13.4772 142.48V149.62C13.4772 149.847 13.3412 150.073 13.0692 150.3L11.4372 151.66C11.1878 151.887 10.9158 152 10.6212 152H4.33115ZM12.0492 149.11V142.99C12.0492 142.763 11.9132 142.537 11.6412 142.31L10.8252 141.63C10.5758 141.403 10.3038 141.29 10.0092 141.29H5.75915V150.81H10.0092C10.3038 150.81 10.5758 150.697 10.8252 150.47L11.6412 149.79C11.9132 149.563 12.0492 149.337 12.0492 149.11ZM19.1703 143.5H19.7653C19.9693 143.5 20.1053 143.517 20.1733 143.551C20.2526 143.574 20.3603 143.642 20.4963 143.755C20.6776 143.902 20.7683 144.044 20.7683 144.18H20.8363C20.8363 144.044 20.961 143.902 21.2103 143.755C21.4143 143.63 21.5503 143.557 21.6183 143.534C21.6976 143.511 21.8393 143.5 22.0433 143.5H23.6073C23.8793 143.5 24.1513 143.613 24.4233 143.84L24.8313 144.18L23.8113 145.03L23.6073 144.86C23.5053 144.781 23.426 144.735 23.3693 144.724C23.3126 144.701 23.1823 144.69 22.9783 144.69H22.2473C22.0433 144.69 21.9016 144.701 21.8223 144.724C21.7543 144.747 21.6183 144.82 21.4143 144.945C21.2103 145.07 21.0913 145.16 21.0573 145.217C21.0233 145.274 21.0063 145.387 21.0063 145.557V152H19.5783V145.387C19.5783 145.217 19.567 145.109 19.5443 145.064C19.533 145.007 19.4763 144.939 19.3743 144.86C19.2723 144.781 19.21 144.718 19.1873 144.673C19.176 144.616 19.1703 144.503 19.1703 144.333V143.5ZM31.3248 143.5H35.4048C35.6768 143.5 35.9488 143.613 36.2208 143.84L36.6288 144.18C36.9008 144.407 37.0368 144.69 37.0368 145.03V150.47C37.0368 150.81 36.9008 151.093 36.6288 151.32L36.2208 151.66C35.9488 151.887 35.6768 152 35.4048 152H31.3248C31.0528 152 30.7808 151.887 30.5088 151.66L30.1008 151.32C29.8288 151.093 29.6928 150.81 29.6928 150.47V145.03C29.6928 144.69 29.8288 144.407 30.1008 144.18L30.5088 143.84C30.7808 143.613 31.0528 143.5 31.3248 143.5ZM35.6088 150.113V145.387C35.6088 145.217 35.5974 145.109 35.5748 145.064C35.5634 145.007 35.5068 144.939 35.4048 144.86C35.3028 144.781 35.2234 144.735 35.1668 144.724C35.1101 144.701 34.9798 144.69 34.7758 144.69H31.9538C31.7498 144.69 31.6194 144.701 31.5628 144.724C31.5061 144.735 31.4268 144.781 31.3248 144.86C31.2228 144.939 31.1604 145.007 31.1378 145.064C31.1264 145.109 31.1208 145.217 31.1208 145.387V150.113C31.1208 150.283 31.1264 150.396 31.1378 150.453C31.1604 150.498 31.2228 150.561 31.3248 150.64C31.4268 150.719 31.5061 150.77 31.5628 150.793C31.6194 150.804 31.7498 150.81 31.9538 150.81H34.7758C34.9798 150.81 35.1101 150.804 35.1668 150.793C35.2234 150.77 35.3028 150.719 35.4048 150.64C35.5068 150.561 35.5634 150.498 35.5748 150.453C35.5974 150.396 35.6088 150.283 35.6088 150.113ZM42.4888 143.5H43.0838C43.2878 143.5 43.4238 143.517 43.4918 143.551C43.5712 143.574 43.6788 143.642 43.8148 143.755C43.9962 143.902 44.0868 144.044 44.0868 144.18H44.1548C44.1548 144.044 44.2795 143.902 44.5288 143.755C44.7328 143.63 44.8688 143.557 44.9368 143.534C45.0162 143.511 45.1578 143.5 45.3618 143.5H48.3708C48.6428 143.5 48.9148 143.613 49.1868 143.84L49.5948 144.18C49.8668 144.407 50.0028 144.69 50.0028 145.03V152H48.5748V145.387C48.5748 145.217 48.5635 145.109 48.5408 145.064C48.5295 145.007 48.4728 144.939 48.3708 144.86C48.2688 144.781 48.1895 144.735 48.1328 144.724C48.0762 144.701 47.9458 144.69 47.7418 144.69H45.5658C45.3618 144.69 45.2202 144.701 45.1408 144.724C45.0728 144.747 44.9368 144.82 44.7328 144.945C44.5288 145.07 44.4098 145.16 44.3758 145.217C44.3418 145.274 44.3248 145.387 44.3248 145.557V152H42.8968V145.387C42.8968 145.217 42.8855 145.109 42.8628 145.064C42.8515 145.007 42.7948 144.939 42.6928 144.86C42.5908 144.781 42.5285 144.718 42.5058 144.673C42.4945 144.616 42.4888 144.503 42.4888 144.333V143.5ZM61.8267 150.47L62.8467 151.32L62.4387 151.66C62.2347 151.83 62.0931 151.932 62.0137 151.966C61.9457 151.989 61.8097 152 61.6057 152H57.0667C56.7947 152 56.5227 151.887 56.2507 151.66L55.8427 151.32C55.5707 151.093 55.4347 150.81 55.4347 150.47V145.03C55.4347 144.69 55.5707 144.407 55.8427 144.18L56.2507 143.84C56.5227 143.613 56.7947 143.5 57.0667 143.5H61.0277C61.2544 143.5 61.5264 143.613 61.8437 143.84L62.2687 144.18C62.5407 144.384 62.6767 144.667 62.6767 145.03V148.515H56.8627V150.113C56.8627 150.283 56.8684 150.396 56.8797 150.453C56.9024 150.498 56.9647 150.561 57.0667 150.64C57.1687 150.719 57.2481 150.77 57.3047 150.793C57.3614 150.804 57.4917 150.81 57.6957 150.81H60.9937C61.1977 150.81 61.3337 150.799 61.4017 150.776C61.4811 150.742 61.6227 150.64 61.8267 150.47ZM61.2487 147.41V145.387C61.2487 145.217 61.2374 145.109 61.2147 145.064C61.2034 145.007 61.1467 144.939 61.0447 144.86C60.9427 144.781 60.8634 144.735 60.8067 144.724C60.7501 144.701 60.6197 144.69 60.4157 144.69H57.6957C57.4917 144.69 57.3614 144.701 57.3047 144.724C57.2481 144.735 57.1687 144.781 57.0667 144.86C56.9647 144.939 56.9024 145.007 56.8797 145.064C56.8684 145.109 56.8627 145.217 56.8627 145.387V147.41H61.2487ZM82.854 147.087L82.48 146.781C82.344 146.668 82.2477 146.605 82.191 146.594C82.1344 146.571 82.021 146.56 81.851 146.56H77.873V150.81H82.31C82.514 150.81 82.6444 150.804 82.701 150.793C82.7577 150.77 82.837 150.719 82.939 150.64C83.041 150.561 83.0977 150.498 83.109 150.453C83.1317 150.396 83.143 150.283 83.143 150.113V147.699C83.143 147.518 83.1317 147.399 83.109 147.342C83.0864 147.285 83.0014 147.2 82.854 147.087ZM77.873 141.29V145.37H81.562C81.766 145.37 81.8964 145.364 81.953 145.353C82.021 145.33 82.1117 145.274 82.225 145.183L82.667 144.826C82.803 144.713 82.8824 144.628 82.905 144.571C82.9277 144.514 82.939 144.39 82.939 144.197V141.987C82.939 141.817 82.9277 141.709 82.905 141.664C82.8937 141.607 82.837 141.539 82.735 141.46C82.633 141.381 82.5537 141.335 82.497 141.324C82.4404 141.301 82.31 141.29 82.106 141.29H77.873ZM83.041 145.778V145.863C83.177 145.863 83.3357 145.937 83.517 146.084L84.333 146.747C84.435 146.838 84.4974 146.923 84.52 147.002C84.554 147.07 84.571 147.206 84.571 147.41V150.47C84.571 150.81 84.435 151.093 84.163 151.32C84.0724 151.388 83.9364 151.501 83.755 151.66C83.483 151.887 83.211 152 82.939 152H76.445V140.1H82.735C83.007 140.1 83.279 140.213 83.551 140.44L83.959 140.78C84.231 141.007 84.367 141.29 84.367 141.63V144.537C84.367 144.775 84.2764 144.968 84.095 145.115L83.517 145.557C83.3357 145.704 83.177 145.778 83.041 145.778ZM94.5725 152H91.9035C91.6315 152 91.3595 151.887 91.0875 151.66L90.6795 151.32C90.4075 151.093 90.2715 150.81 90.2715 150.47V143.5H91.6995V150.113C91.6995 150.283 91.7051 150.396 91.7165 150.453C91.7391 150.498 91.8015 150.561 91.9035 150.64C92.0055 150.719 92.0848 150.77 92.1415 150.793C92.1981 150.804 92.3285 150.81 92.5325 150.81H94.3685C94.5725 150.81 94.7085 150.799 94.7765 150.776C94.8558 150.753 94.9975 150.68 95.2015 150.555C95.4055 150.43 95.5245 150.34 95.5585 150.283C95.5925 150.226 95.6095 150.113 95.6095 149.943V143.5H97.0375V150.113C97.0375 150.283 97.0431 150.396 97.0545 150.453C97.0771 150.498 97.1395 150.561 97.2415 150.64C97.3435 150.719 97.4001 150.787 97.4115 150.844C97.4341 150.889 97.4455 150.997 97.4455 151.167V152H96.8505C96.6465 152 96.5048 151.989 96.4255 151.966C96.3575 151.932 96.2555 151.858 96.1195 151.745C95.9381 151.598 95.8475 151.456 95.8475 151.32H95.7795C95.7795 151.456 95.6548 151.598 95.4055 151.745C95.2015 151.87 95.0598 151.943 94.9805 151.966C94.9125 151.989 94.7765 152 94.5725 152ZM104.177 150.81H108.852C109 150.923 109.085 151.014 109.107 151.082C109.141 151.139 109.158 151.297 109.158 151.558V152H102.63V150.742L107.05 145.047C107.186 144.9 107.305 144.809 107.407 144.775V144.69H103.004C102.857 144.577 102.766 144.492 102.732 144.435C102.71 144.367 102.698 144.203 102.698 143.942V143.5H108.988V144.792L104.534 150.453C104.398 150.6 104.279 150.691 104.177 150.725V150.81ZM115.629 150.81H120.304C120.451 150.923 120.536 151.014 120.559 151.082C120.593 151.139 120.61 151.297 120.61 151.558V152H114.082V150.742L118.502 145.047C118.638 144.9 118.757 144.809 118.859 144.775V144.69H114.456C114.309 144.577 114.218 144.492 114.184 144.435C114.161 144.367 114.15 144.203 114.15 143.942V143.5H120.44V144.792L115.986 150.453C115.85 150.6 115.731 150.691 115.629 150.725V150.81Z" fill="#4200FF"/>
</g>
<defs>
<clipPath id="clip0_110_617">
<rect width="127" height="159" fill="white"/>
</clipPath>
<clipPath id="clip1_110_617">
<rect width="125" height="125" fill="white"/>
</clipPath>
</defs>
</svg>
